<?xml version="1.0" standalone="no"?>
<!DOCTYPE svg PUBLIC "-//W3C//DTD SVG 20010904//EN"
 "http://www.w3.org/TR/2001/REC-SVG-20010904/DTD/svg10.dtd">
<svg version="1.0" xmlns="http://www.w3.org/2000/svg"
 width="431.000000pt" height="433.000000pt" viewBox="0 0 431.000000 433.000000"
 preserveAspectRatio="xMidYMid meet">

<g transform="translate(0.000000,433.000000) scale(0.100000,-0.100000)"
fill="#000000" stroke="none">
<path d="M1724 4319 c-803 -62 -1459 -623 -1658 -1418 -166 -660 -3 -1357 457
-1966 304 -402 695 -698 1102 -833 561 -187 1232 -94 1739 243 504 335 825
843 922 1460 23 150 23 444 0 580 -77 456 -281 843 -621 1180 -432 429 -1043
707 -1655 755 -138 11 -141 11 -286 -1z"/>
</g>
</svg>
