<?xml version="1.0" encoding="UTF-8"?>
<!DOCTYPE svg PUBLIC "-//W3C//DTD SVG 1.1//EN" "http://www.w3.org/Graphics/SVG/1.1/DTD/svg11.dtd">
<svg xmlns="http://www.w3.org/2000/svg" version="1.1" width="383px" height="335px" style="shape-rendering:geometricPrecision; text-rendering:geometricPrecision; image-rendering:optimizeQuality; fill-rule:evenodd; clip-rule:evenodd" xmlns:xlink="http://www.w3.org/1999/xlink">
<g><path style="opacity:1" fill="#000000" d="M 169.5,-0.5 C 181.833,-0.5 194.167,-0.5 206.5,-0.5C 264.249,7.76018 310.749,35.0935 346,81.5C 365.022,106.543 377.189,134.543 382.5,165.5C 382.5,175.833 382.5,186.167 382.5,196.5C 377.064,230.867 361.064,259.367 334.5,282C 291.646,315.453 242.979,332.953 188.5,334.5C 183.167,334.5 177.833,334.5 172.5,334.5C 130.519,333.002 91.186,321.835 54.5,301C 31.2034,287.04 14.37,267.54 4,242.5C 2.29,236.419 0.79,230.419 -0.5,224.5C -0.5,215.167 -0.5,205.833 -0.5,196.5C 15.1396,134.046 45.8062,80.2126 91.5,35C 113.862,15.1579 139.862,3.32454 169.5,-0.5 Z"/></g>
</svg>
