<?xml version="1.0" encoding="UTF-8"?>
<!DOCTYPE svg PUBLIC "-//W3C//DTD SVG 1.1//EN" "http://www.w3.org/Graphics/SVG/1.1/DTD/svg11.dtd">
<svg xmlns="http://www.w3.org/2000/svg" version="1.1" width="385px" height="390px" style="shape-rendering:geometricPrecision; text-rendering:geometricPrecision; image-rendering:optimizeQuality; fill-rule:evenodd; clip-rule:evenodd" xmlns:xlink="http://www.w3.org/1999/xlink">
<g><path style="opacity:1" fill="#000000" d="M 177.5,-0.5 C 185.5,-0.5 193.5,-0.5 201.5,-0.5C 236.044,3.10157 267.044,15.6016 294.5,37C 344.603,77.9538 374.603,130.454 384.5,194.5C 384.5,205.5 384.5,216.5 384.5,227.5C 376.764,283.803 348.764,326.97 300.5,357C 269.152,375.395 235.486,386.228 199.5,389.5C 187.833,389.5 176.167,389.5 164.5,389.5C 121.163,386 82.163,371.166 47.5,345C 19.1639,322.171 3.16394,292.671 -0.5,256.5C -0.5,249.833 -0.5,243.167 -0.5,236.5C 3.86622,204.553 13.0329,173.887 27,144.5C 40.5082,114.704 56.8415,86.7042 76,60.5C 91.5289,39.628 110.696,23.128 133.5,11C 147.679,4.76437 162.345,0.931035 177.5,-0.5 Z"/></g>
</svg>
