<?xml version="1.0" encoding="UTF-8"?>
<!DOCTYPE svg PUBLIC "-//W3C//DTD SVG 1.1//EN" "http://www.w3.org/Graphics/SVG/1.1/DTD/svg11.dtd">
<svg xmlns="http://www.w3.org/2000/svg" version="1.1" width="1368px" height="135px" style="shape-rendering:geometricPrecision; text-rendering:geometricPrecision; image-rendering:optimizeQuality; fill-rule:evenodd; clip-rule:evenodd" xmlns:xlink="http://www.w3.org/1999/xlink">
<g><path fill="#ffffff" d="M -0.5,-0.5 C 455.5,-0.5 911.5,-0.5 1367.5,-0.5C 1367.5,44.5 1367.5,89.5 1367.5,134.5C 1367.17,134.5 1366.83,134.5 1366.5,134.5C 1327.33,111.916 1286.33,93.0827 1243.5,78C 1127.61,38.7562 1008.61,14.7562 886.5,6C 763.578,-3.34525 640.912,-0.678583 518.5,14C 443.856,23.5205 369.19,32.8539 294.5,42C 225.619,50.1335 156.619,51.4668 87.5,46C 57.7458,43.0967 28.4124,37.9301 -0.5,30.5C -0.5,20.1667 -0.5,9.83333 -0.5,-0.5 Z"/></g>
</svg>
