<?xml version="1.0" encoding="UTF-8"?>
<!DOCTYPE svg PUBLIC "-//W3C//DTD SVG 1.1//EN" "http://www.w3.org/Graphics/SVG/1.1/DTD/svg11.dtd">
<svg xmlns="http://www.w3.org/2000/svg" version="1.1" width="1368px" height="161px" style="shape-rendering:geometricPrecision; text-rendering:geometricPrecision; image-rendering:optimizeQuality; fill-rule:evenodd; clip-rule:evenodd" xmlns:xlink="http://www.w3.org/1999/xlink">
<g><path style="opacity:0.995" fill="#fefffe" d="M 404.5,-0.5 C 415.5,-0.5 426.5,-0.5 437.5,-0.5C 536.792,3.69352 635.792,12.8602 734.5,27C 818.833,39.3333 903.167,51.6667 987.5,64C 1076.85,77.5515 1166.68,85.3848 1257,87.5C 1294.03,87.987 1330.87,85.6537 1367.5,80.5C 1367.5,107.167 1367.5,133.833 1367.5,160.5C 911.5,160.5 455.5,160.5 -0.5,160.5C -0.5,159.833 -0.5,159.167 -0.5,158.5C 43.0103,102.2 98.3437,61.6996 165.5,37C 219.256,18.0619 274.589,6.72856 331.5,3C 355.976,1.44709 380.309,0.280422 404.5,-0.5 Z"/></g>
</svg>
