<?xml version="1.0" encoding="UTF-8"?>
<!DOCTYPE svg PUBLIC "-//W3C//DTD SVG 1.1//EN" "http://www.w3.org/Graphics/SVG/1.1/DTD/svg11.dtd">
<svg xmlns="http://www.w3.org/2000/svg" version="1.1" width="1367px" height="106px" style="shape-rendering:geometricPrecision; text-rendering:geometricPrecision; image-rendering:optimizeQuality; fill-rule:evenodd; clip-rule:evenodd" xmlns:xlink="http://www.w3.org/1999/xlink">
<g><path fill="#ffffff" d="M -0.5,0.5 C -0.5,0.166667 -0.5,-0.166667 -0.5,-0.5C 455.167,-0.5 910.833,-0.5 1366.5,-0.5C 1366.5,8.83333 1366.5,18.1667 1366.5,27.5C 1314.36,26.3875 1262.36,28.5542 1210.5,34C 1179.11,37.1739 1147.78,40.8405 1116.5,45C 1040.82,55.5733 965.154,66.2399 889.5,77C 774.25,93.6322 658.583,103.132 542.5,105.5C 535.5,105.5 528.5,105.5 521.5,105.5C 430.388,104.84 340.055,95.3403 250.5,77C 206.757,67.6411 163.757,55.6411 121.5,41C 92.9879,29.9401 64.3212,19.2735 35.5,9C 23.7082,5.21852 11.7082,2.38519 -0.5,0.5 Z"/></g>
</svg>
