<?xml version="1.0" encoding="UTF-8"?>
<!DOCTYPE svg PUBLIC "-//W3C//DTD SVG 1.1//EN" "http://www.w3.org/Graphics/SVG/1.1/DTD/svg11.dtd">
<svg xmlns="http://www.w3.org/2000/svg" version="1.1" width="1368px" height="68px" style="shape-rendering:geometricPrecision; text-rendering:geometricPrecision; image-rendering:optimizeQuality; fill-rule:evenodd; clip-rule:evenodd" xmlns:xlink="http://www.w3.org/1999/xlink">
<g><path fill="#e3f6e9" d="M 1363.5,-0.5 C 1364.83,-0.5 1366.17,-0.5 1367.5,-0.5C 1367.5,22.1667 1367.5,44.8333 1367.5,67.5C 911.5,67.5 455.5,67.5 -0.5,67.5C -0.5,67.1667 -0.5,66.8333 -0.5,66.5C 9.55002,65.8271 19.55,64.6605 29.5,63C 165.767,35.2666 303.434,20.2666 442.5,18C 480.661,17.1011 518.828,16.6011 557,16.5C 675.175,17.7926 793.341,19.6259 911.5,22C 1038.09,24.9271 1164.43,20.5938 1290.5,9C 1315.07,6.55419 1339.41,3.38753 1363.5,-0.5 Z"/></g>
</svg>
