<?xml version="1.0" encoding="UTF-8"?>
<!DOCTYPE svg PUBLIC "-//W3C//DTD SVG 1.1//EN" "http://www.w3.org/Graphics/SVG/1.1/DTD/svg11.dtd">
<svg xmlns="http://www.w3.org/2000/svg" version="1.1" width="1368px" height="30px" style="shape-rendering:geometricPrecision; text-rendering:geometricPrecision; image-rendering:optimizeQuality; fill-rule:evenodd; clip-rule:evenodd" xmlns:xlink="http://www.w3.org/1999/xlink">
<g><path style="opacity:1" fill="#ffffff" d="M 1366.5,-0.5 C 1366.83,-0.5 1367.17,-0.5 1367.5,-0.5C 1367.5,9.5 1367.5,19.5 1367.5,29.5C 1266.83,29.5 1166.17,29.5 1065.5,29.5C 1152.46,27.1971 1239.13,19.6971 1325.5,7C 1339.38,4.91095 1353.05,2.41095 1366.5,-0.5 Z"/></g>
<g><path style="opacity:1" fill="#ffffff" d="M 902.5,29.5 C 601.5,29.5 300.5,29.5 -0.5,29.5C -0.5,28.5 -0.5,27.5 -0.5,26.5C 13.8372,26.6666 28.1705,26.4999 42.5,26C 141.046,15.3572 239.879,9.85723 339,9.5C 392.842,10.1749 446.675,11.3416 500.5,13C 634.64,19.0222 768.64,24.5222 902.5,29.5 Z"/></g>
</svg>
