<?xml version="1.0" encoding="UTF-8"?>
<!DOCTYPE svg PUBLIC "-//W3C//DTD SVG 1.1//EN" "http://www.w3.org/Graphics/SVG/1.1/DTD/svg11.dtd">
<svg xmlns="http://www.w3.org/2000/svg" version="1.1" width="1368px" height="79px" style="shape-rendering:geometricPrecision; text-rendering:geometricPrecision; image-rendering:optimizeQuality; fill-rule:evenodd; clip-rule:evenodd" xmlns:xlink="http://www.w3.org/1999/xlink">
<g><path style="opacity:1" fill="#d3dbc3" d="M -0.5,-0.5 C 455.5,-0.5 911.5,-0.5 1367.5,-0.5C 1367.5,3.83333 1367.5,8.16667 1367.5,12.5C 1351.31,12.2756 1335.31,12.9423 1319.5,14.5C 1313.59,15.4553 1307.59,15.7886 1301.5,15.5C 1291.95,15.2753 1282.62,15.942 1273.5,17.5C 1272.83,17.5 1272.17,17.5 1271.5,17.5C 1262.63,17.4186 1253.96,18.0852 1245.5,19.5C 1238.03,20.7619 1230.36,21.4285 1222.5,21.5C 1214.94,21.3099 1207.61,21.9766 1200.5,23.5C 1193.28,23.35 1186.28,24.0167 1179.5,25.5C 1170.04,27.0803 1160.37,28.0803 1150.5,28.5C 1137.6,28.9229 1124.93,30.2562 1112.5,32.5C 1100.37,34.4141 1088.04,35.7474 1075.5,36.5C 1066.27,36.7104 1057.27,37.7104 1048.5,39.5C 1030.27,40.7104 1012.27,42.7104 994.5,45.5C 985.377,47.1466 976.044,48.1466 966.5,48.5C 951.589,49.2559 936.922,50.9225 922.5,53.5C 918.566,54.3597 914.566,54.693 910.5,54.5C 900.28,54.7219 890.28,55.7219 880.5,57.5C 874.261,57.2764 868.261,57.9431 862.5,59.5C 817.285,64.379 771.952,68.0456 726.5,70.5C 709.972,70.8062 693.639,71.8062 677.5,73.5C 670.588,74.4621 663.588,74.7955 656.5,74.5C 640.978,74.4003 625.644,75.067 610.5,76.5C 591.345,77.0889 572.345,77.7556 553.5,78.5C 535.833,78.5 518.167,78.5 500.5,78.5C 492.35,77.5073 484.017,77.1739 475.5,77.5C 459.358,75.9654 443.025,75.2987 426.5,75.5C 374.26,73.8133 322.26,69.48 270.5,62.5C 266.433,60.9462 262.1,60.2796 257.5,60.5C 220.712,56.0726 184.378,49.7393 148.5,41.5C 145.781,40.087 142.781,39.4203 139.5,39.5C 136.781,38.087 133.781,37.4203 130.5,37.5C 125.122,35.4068 119.455,34.0735 113.5,33.5C 106.789,31.0735 99.7891,29.4068 92.5,28.5C 90.5615,26.8372 88.2282,26.1706 85.5,26.5C 85.1667,26.5 84.8333,26.5 84.5,26.5C 81.237,24.4318 77.5704,23.4318 73.5,23.5C 71.5615,21.8372 69.2282,21.1706 66.5,21.5C 65.0413,21.5674 63.7079,21.2341 62.5,20.5C 59.619,18.32 56.2856,17.32 52.5,17.5C 50.5615,15.8372 48.2282,15.1706 45.5,15.5C 43.5615,13.8372 41.2282,13.1706 38.5,13.5C 36.5615,11.8372 34.2282,11.1706 31.5,11.5C 28.237,9.43177 24.5704,8.43177 20.5,8.5C 18.5615,6.83724 16.2282,6.17057 13.5,6.5C 9.45346,4.74025 5.12012,3.74025 0.5,3.5C 0.166667,3.5 -0.166667,3.5 -0.5,3.5C -0.5,2.16667 -0.5,0.833333 -0.5,-0.5 Z"/></g>
<g><path style="opacity:0.824" fill="#51a560" d="M 0.5,3.5 C 5.12012,3.74025 9.45346,4.74025 13.5,6.5C 8.87988,6.25975 4.54654,5.25975 0.5,3.5 Z"/></g>
<g><path style="opacity:0.992" fill="#68ae70" d="M 13.5,6.5 C 16.2282,6.17057 18.5615,6.83724 20.5,8.5C 17.9327,8.27852 15.5994,7.61185 13.5,6.5 Z"/></g>
<g><path style="opacity:0.831" fill="#53a561" d="M 20.5,8.5 C 24.5704,8.43177 28.237,9.43177 31.5,11.5C 27.6032,10.9448 23.9365,9.94484 20.5,8.5 Z"/></g>
<g><path style="opacity:0.886" fill="#58a763" d="M 31.5,11.5 C 34.2282,11.1706 36.5615,11.8372 38.5,13.5C 35.9327,13.2785 33.5994,12.6118 31.5,11.5 Z"/></g>
<g><path style="opacity:0.392" fill="#48a25b" d="M 1367.5,12.5 C 1367.5,12.8333 1367.5,13.1667 1367.5,13.5C 1351.5,13.643 1335.5,13.9764 1319.5,14.5C 1335.31,12.9423 1351.31,12.2756 1367.5,12.5 Z"/></g>
<g><path style="opacity:0.918" fill="#5ba966" d="M 38.5,13.5 C 41.2282,13.1706 43.5615,13.8372 45.5,15.5C 42.9327,15.2785 40.5994,14.6118 38.5,13.5 Z"/></g>
<g><path style="opacity:0.992" fill="#65ad6e" d="M 45.5,15.5 C 48.2282,15.1706 50.5615,15.8372 52.5,17.5C 49.9327,17.2785 47.5994,16.6118 45.5,15.5 Z"/></g>
<g><path style="opacity:0.271" fill="#3f9e54" d="M 1301.5,15.5 C 1292.35,16.6565 1283.02,17.3231 1273.5,17.5C 1282.62,15.942 1291.95,15.2753 1301.5,15.5 Z"/></g>
<g><path style="opacity:1" fill="#5faa68" d="M 52.5,17.5 C 56.2856,17.32 59.619,18.32 62.5,20.5C 58.8835,20.1007 55.5502,19.1007 52.5,17.5 Z"/></g>
<g><path style="opacity:0.42" fill="#47a25a" d="M 1271.5,17.5 C 1263.03,18.8181 1254.36,19.4848 1245.5,19.5C 1253.96,18.0852 1262.63,17.4186 1271.5,17.5 Z"/></g>
<g><path style="opacity:0.933" fill="#5faa69" d="M 66.5,21.5 C 69.2282,21.1706 71.5615,21.8372 73.5,23.5C 70.9327,23.2785 68.5994,22.6118 66.5,21.5 Z"/></g>
<g><path style="opacity:0.235" fill="#44a057" d="M 1222.5,21.5 C 1215.37,22.8149 1208.04,23.4815 1200.5,23.5C 1207.61,21.9766 1214.94,21.3099 1222.5,21.5 Z"/></g>
<g><path style="opacity:0.831" fill="#53a561" d="M 73.5,23.5 C 77.5704,23.4318 81.237,24.4318 84.5,26.5C 80.6032,25.9448 76.9365,24.9448 73.5,23.5 Z"/></g>
<g><path style="opacity:0.224" fill="#44a057" d="M 1200.5,23.5 C 1193.7,24.7552 1186.7,25.4219 1179.5,25.5C 1186.28,24.0167 1193.28,23.35 1200.5,23.5 Z"/></g>
<g><path style="opacity:0.992" fill="#66ad6f" d="M 85.5,26.5 C 88.2282,26.1706 90.5615,26.8372 92.5,28.5C 89.9327,28.2785 87.5994,27.6118 85.5,26.5 Z"/></g>
<g><path style="opacity:0.804" fill="#4ca35c" d="M 92.5,28.5 C 99.7891,29.4068 106.789,31.0735 113.5,33.5C 106.211,32.5932 99.2109,30.9265 92.5,28.5 Z"/></g>
<g><path style="opacity:0.298" fill="#47a15a" d="M 1150.5,28.5 C 1138.03,30.3478 1125.36,31.6812 1112.5,32.5C 1124.93,30.2562 1137.6,28.9229 1150.5,28.5 Z"/></g>
<g><path style="opacity:0.925" fill="#58a764" d="M 113.5,33.5 C 119.455,34.0735 125.122,35.4068 130.5,37.5C 124.545,36.9265 118.878,35.5932 113.5,33.5 Z"/></g>
<g><path style="opacity:0.831" fill="#56a764" d="M 130.5,37.5 C 133.781,37.4203 136.781,38.087 139.5,39.5C 136.219,39.5797 133.219,38.913 130.5,37.5 Z"/></g>
<g><path style="opacity:0.235" fill="#429f55" d="M 1075.5,36.5 C 1066.71,38.1432 1057.71,39.1432 1048.5,39.5C 1057.27,37.7104 1066.27,36.7104 1075.5,36.5 Z"/></g>
<g><path style="opacity:0.831" fill="#54a663" d="M 139.5,39.5 C 142.781,39.4203 145.781,40.087 148.5,41.5C 145.219,41.5797 142.219,40.913 139.5,39.5 Z"/></g>
<g><path style="opacity:0.224" fill="#419f55" d="M 1048.5,39.5 C 1030.71,42.1432 1012.71,44.1432 994.5,45.5C 1012.27,42.7104 1030.27,40.7104 1048.5,39.5 Z"/></g>
<g><path style="opacity:0.31" fill="#4ba35c" d="M 966.5,48.5 C 952.039,50.7368 937.372,52.4035 922.5,53.5C 936.922,50.9225 951.589,49.2559 966.5,48.5 Z"/></g>
<g><path style="opacity:0.298" fill="#49a35c" d="M 910.5,54.5 C 900.707,56.146 890.707,57.146 880.5,57.5C 890.28,55.7219 900.28,54.7219 910.5,54.5 Z"/></g>
<g><path style="opacity:0.204" fill="#349a4c" d="M 880.5,57.5 C 874.699,58.6818 868.699,59.3484 862.5,59.5C 868.261,57.9431 874.261,57.2764 880.5,57.5 Z"/></g>
<g><path style="opacity:0.204" fill="#3b9c50" d="M 257.5,60.5 C 262.1,60.2796 266.433,60.9462 270.5,62.5C 265.951,62.3755 261.618,61.7089 257.5,60.5 Z"/></g>
<g><path style="opacity:0.204" fill="#46a058" d="M 726.5,70.5 C 710.363,72.2339 694.03,73.2339 677.5,73.5C 693.639,71.8062 709.972,70.8062 726.5,70.5 Z"/></g>
<g><path style="opacity:0.271" fill="#48a25b" d="M 656.5,74.5 C 641.351,75.8253 626.018,76.492 610.5,76.5C 625.644,75.067 640.978,74.4003 656.5,74.5 Z"/></g>
<g><path style="opacity:0.58" fill="#58a866" d="M 426.5,75.5 C 443.025,75.2987 459.358,75.9654 475.5,77.5C 458.986,77.4165 442.653,76.7498 426.5,75.5 Z"/></g>
</svg>
