<?xml version="1.0" encoding="UTF-8"?>
<!DOCTYPE svg PUBLIC "-//W3C//DTD SVG 1.1//EN" "http://www.w3.org/Graphics/SVG/1.1/DTD/svg11.dtd">
<svg xmlns="http://www.w3.org/2000/svg" version="1.1" width="1368px" height="120px" style="shape-rendering:geometricPrecision; text-rendering:geometricPrecision; image-rendering:optimizeQuality; fill-rule:evenodd; clip-rule:evenodd" xmlns:xlink="http://www.w3.org/1999/xlink">
<g><path fill="#fff" d="M -0.5,0.5 C -0.5,0.166667 -0.5,-0.166667 -0.5,-0.5C 455.5,-0.5 911.5,-0.5 1367.5,-0.5C 1367.5,10.5 1367.5,21.5 1367.5,32.5C 1320.35,31.4896 1273.35,33.6563 1226.5,39C 1195.1,42.5078 1163.77,46.5078 1132.5,51C 1062.78,61.6751 993.116,72.6751 923.5,84C 805.772,103.583 687.439,115.416 568.5,119.5C 551.5,119.5 534.5,119.5 517.5,119.5C 410.54,118.148 305.54,102.648 202.5,73C 172.056,63.5192 142.056,52.8525 112.5,41C 83.7715,26.9788 54.1048,15.3121 23.5,6C 15.5534,3.84629 7.55342,2.01296 -0.5,0.5 Z"/></g>
</svg>
