<?xml version="1.0" standalone="no"?>
<!DOCTYPE svg PUBLIC "-//W3C//DTD SVG 20010904//EN"
 "http://www.w3.org/TR/2001/REC-SVG-20010904/DTD/svg10.dtd">
<svg version="1.0" xmlns="http://www.w3.org/2000/svg"
 width="260.000000pt" height="260.000000pt" viewBox="0 0 260.000000 260.000000"
 preserveAspectRatio="xMidYMid meet">
<metadata>
Created by potrace 1.14, written by Peter Selinger 2001-2017
</metadata>
<g transform="translate(0.000000,260.000000) scale(0.100000,-0.100000)"
fill="#000000" stroke="none">
<path d="M415 2197 c-70 -84 -121 -143 -127 -145 -5 -2 -8 -10 -8 -18 0 -8 -7
-17 -15 -20 -8 -4 -12 -10 -9 -15 3 -5 0 -9 -5 -9 -6 0 -11 -7 -11 -15 0 -8
-4 -15 -8 -15 -5 0 -14 -16 -22 -35 -8 -19 -16 -35 -20 -35 -3 0 -14 -22 -25
-49 -10 -28 -22 -48 -26 -45 -5 2 -6 -5 -4 -16 2 -11 -2 -25 -8 -32 -7 -7 -12
-22 -12 -33 0 -11 -4 -23 -9 -27 -5 -3 -11 -12 -12 -20 -2 -7 -6 -24 -9 -38
-4 -14 -9 -41 -12 -60 -3 -19 -10 -41 -15 -47 -7 -9 -6 -13 3 -13 9 0 10 -3 3
-8 -5 -4 -11 -29 -13 -57 -2 -27 -8 -56 -14 -64 -9 -12 -9 -13 1 -7 7 4 12 1
12 -9 0 -10 -5 -13 -12 -9 -7 5 -8 3 -2 -7 12 -19 12 -51 1 -66 -6 -8 -6 -13
0 -13 5 0 9 -20 9 -45 -1 -25 1 -45 4 -45 3 0 5 -17 6 -37 1 -35 22 -140 34
-173 1 -3 2 -13 1 -23 -1 -9 3 -17 8 -17 6 0 11 -13 11 -30 0 -16 5 -30 10
-30 6 0 10 -7 10 -15 0 -8 4 -23 9 -33 5 -9 24 -47 42 -84 18 -38 36 -68 41
-68 5 0 7 -4 4 -9 -3 -5 1 -14 9 -21 8 -7 15 -17 15 -23 0 -5 9 -18 21 -28 11
-9 19 -21 18 -25 -2 -7 50 -70 111 -133 19 -20 34 -39 32 -43 -3 -14 31 -1 40
15 5 9 13 17 19 17 11 0 160 116 171 134 4 6 8 7 8 3 0 -5 6 -2 13 5 8 7 28
24 45 37 l32 24 -72 73 c-81 80 -98 100 -98 110 0 4 -10 21 -23 38 -35 47 -89
166 -83 182 3 8 0 17 -8 20 -7 3 -13 10 -14 17 -1 19 -10 70 -18 97 -6 23 -8
195 -3 268 2 17 7 32 13 32 6 0 4 5 -4 10 -11 7 -11 10 -2 10 7 0 10 5 7 10
-3 6 -3 16 2 23 4 6 8 14 8 17 0 18 41 120 47 120 7 0 35 -21 63 -47 8 -7 16
-13 19 -13 3 0 15 -8 25 -17 24 -22 27 -25 116 -93 39 -29 77 -61 86 -71 9
-10 22 -19 30 -21 7 -2 25 -15 41 -30 15 -16 30 -28 33 -28 4 0 12 -6 19 -12
7 -7 28 -24 46 -38 18 -14 39 -31 46 -37 7 -7 15 -13 19 -13 3 0 17 -11 31
-25 14 -14 28 -25 32 -25 4 0 21 -14 39 -30 18 -17 35 -30 39 -30 4 0 15 -10
25 -22 11 -11 19 -17 19 -12 0 5 6 2 13 -7 32 -41 59 -32 166 61 19 16 38 27
44 23 6 -3 7 -1 3 5 -4 6 6 18 24 27 16 8 30 20 30 25 0 6 6 10 13 10 6 0 31
18 55 40 24 22 45 40 48 40 8 0 124 92 158 125 16 17 33 29 36 28 3 -1 20 11
38 27 19 17 38 30 43 30 5 0 9 5 9 10 0 6 5 10 11 10 7 0 22 11 35 25 13 14
25 25 28 25 6 0 37 24 61 48 16 15 35 16 36 2 1 -5 2 -14 3 -19 0 -5 4 -13 9
-17 4 -4 7 -17 7 -30 0 -12 4 -24 9 -26 5 -1 12 -21 14 -43 2 -22 7 -47 11
-56 4 -9 8 -51 9 -95 2 -44 6 -85 10 -91 4 -6 3 -14 -1 -17 -5 -3 -9 -20 -10
-38 -1 -18 -4 -44 -8 -58 -3 -14 -7 -38 -9 -53 -2 -15 -8 -34 -14 -41 -7 -8
-11 -18 -9 -22 1 -5 -8 -31 -20 -58 -12 -27 -22 -55 -22 -62 0 -8 -6 -14 -13
-14 -7 0 -13 -9 -14 -19 -1 -11 -9 -27 -17 -38 -9 -10 -16 -21 -17 -25 0 -11
-49 -67 -116 -133 -70 -69 -72 -58 25 -128 28 -21 52 -43 52 -48 0 -6 4 -8 9
-5 5 3 12 -1 15 -10 4 -9 9 -14 12 -11 3 2 22 -10 42 -29 20 -19 43 -34 50
-34 6 0 12 -6 12 -14 0 -7 11 -16 25 -18 14 -3 25 -2 25 3 0 4 15 23 33 42 54
58 112 130 132 165 11 17 23 32 28 32 4 0 6 4 3 9 -3 5 1 14 9 21 8 7 12 16 9
21 -3 5 -1 9 5 9 12 0 81 142 81 165 0 8 5 15 12 15 6 0 8 3 5 7 -4 3 0 17 9
31 9 13 11 21 5 18 -6 -4 -11 -2 -11 3 0 6 5 11 10 11 6 0 10 9 10 21 0 11 5
30 12 42 6 12 12 33 13 47 3 72 6 81 16 74 8 -5 8 -1 0 13 -6 11 -8 22 -6 25
2 2 6 31 8 65 3 33 8 67 12 73 5 9 4 11 -3 6 -15 -9 -15 -1 -1 26 6 12 7 18 1
14 -6 -3 -9 11 -8 39 1 25 -2 45 -7 45 -5 0 -4 6 2 14 9 10 9 16 1 21 -8 5 -7
11 2 23 10 12 10 14 1 8 -14 -8 -14 -7 -17 39 -1 17 -5 35 -8 41 -9 13 -20 63
-20 87 1 9 -4 17 -9 17 -6 0 -8 4 -4 9 3 5 1 12 -4 15 -5 3 -12 21 -15 40 -4
19 -13 39 -21 46 -7 6 -11 18 -8 26 3 8 0 14 -6 14 -6 0 -11 3 -10 8 2 15 -14
52 -23 52 -6 0 -8 7 -4 15 3 8 1 15 -4 15 -6 0 -18 16 -27 35 -9 19 -20 35
-25 35 -4 0 -8 7 -8 15 0 8 -4 15 -10 15 -5 0 -10 4 -10 10 0 11 -23 41 -63
82 -15 15 -25 28 -23 28 3 0 -10 16 -28 35 -37 38 -48 42 -68 22 -11 -10 -126
-101 -166 -132 -8 -5 -24 -20 -37 -31 -13 -12 -26 -19 -29 -16 -3 3 -6 1 -6
-4 0 -5 -18 -20 -39 -34 -22 -13 -38 -28 -35 -32 3 -4 -1 -8 -9 -8 -8 0 -18
-7 -21 -16 -3 -8 -10 -13 -14 -10 -5 3 -15 -3 -23 -12 -8 -9 -28 -26 -43 -37
-16 -11 -42 -32 -59 -47 -18 -16 -37 -28 -45 -28 -7 0 -11 -4 -7 -9 3 -5 -3
-12 -12 -15 -10 -3 -33 -20 -50 -36 -18 -17 -33 -29 -33 -26 0 4 -8 -2 -18
-11 -26 -25 -61 -53 -66 -53 -2 0 -15 -9 -28 -20 -94 -80 -93 -80 -125 -51
-12 11 -24 17 -27 14 -3 -4 -6 -1 -6 5 0 6 -29 32 -65 58 -36 26 -65 51 -65
56 0 4 -7 8 -15 8 -8 0 -20 9 -27 20 -7 11 -17 20 -21 20 -7 0 -66 44 -114 85
-6 6 -26 21 -44 35 -18 14 -59 45 -90 70 -31 25 -67 52 -79 60 -12 8 -35 27
-50 42 -15 15 -30 24 -34 21 -3 -3 -8 2 -12 11 -3 9 -11 16 -16 16 -6 0 -21
11 -34 26 -13 14 -24 23 -24 20 0 -6 -38 24 -72 57 -21 20 -39 21 -53 4z"/>
</g>
</svg>
