<?xml version="1.0" standalone="no"?>
<!DOCTYPE svg PUBLIC "-//W3C//DTD SVG 20010904//EN"
 "http://www.w3.org/TR/2001/REC-SVG-20010904/DTD/svg10.dtd">
<svg version="1.0" xmlns="http://www.w3.org/2000/svg"
 width="100.000000pt" height="100.000000pt" viewBox="0 0 100.000000 100.000000"
 preserveAspectRatio="xMidYMid meet">

<g transform="translate(0.000000,100.000000) scale(0.100000,-0.100000)"
fill="#000000" stroke="none">
<path d="M506 875 c-13 -20 -14 -30 -5 -46 8 -16 8 -28 0 -45 -15 -34 5 -40
23 -7 10 21 11 34 4 47 -7 12 -7 26 1 42 14 32 -3 39 -23 9z"/>
<path d="M246 851 c-3 -4 3 -16 14 -26 11 -10 20 -30 20 -45 0 -24 35 -70 53
-70 16 0 5 30 -14 41 -14 7 -19 17 -16 31 3 11 3 26 0 33 -7 19 -51 47 -57 36z"/>
<path d="M757 801 c-10 -3 -23 -18 -30 -31 -7 -14 -23 -26 -35 -28 -12 -2 -22
-10 -22 -18 0 -11 7 -13 28 -8 37 9 42 13 52 39 5 13 19 25 31 27 27 4 38 28
12 27 -10 0 -26 -4 -36 -8z"/>
<path d="M368 680 c-57 -31 -87 -91 -103 -210 -17 -120 -29 -145 -95 -200 -27
-23 -50 -46 -50 -51 0 -22 30 -5 82 48 61 63 88 127 88 209 0 122 74 204 185
204 84 0 152 -42 186 -115 24 -52 24 -82 -2 -142 -14 -33 -18 -58 -14 -82 6
-32 5 -33 -19 -27 -22 5 -25 3 -23 -21 2 -25 -2 -28 -30 -31 -37 -4 -45 -22
-10 -22 20 -1 21 -2 5 -14 -10 -7 -18 -20 -18 -29 0 -43 -70 -18 -123 43 -41
48 -61 47 -33 -1 16 -28 17 -32 1 -55 -17 -26 -17 -81 0 -76 6 2 9 13 7 25 -2
13 6 31 16 41 19 16 21 16 53 -3 48 -30 77 -27 97 9 9 16 23 30 30 30 6 0 12
6 12 14 0 8 7 16 15 20 8 3 15 11 15 18 0 7 9 19 19 25 16 10 18 20 14 53 -4
27 0 53 12 80 41 90 -2 208 -94 257 -58 30 -168 32 -223 3z"/>
<path d="M492 586 c-52 -67 -60 -86 -37 -86 12 0 15 -5 10 -17 -38 -94 -30
-102 35 -38 51 51 61 72 36 81 -13 5 -13 11 0 46 29 84 15 89 -44 14z m4 -63
c-10 -10 -19 5 -10 18 6 11 8 11 12 0 2 -7 1 -15 -2 -18z m24 -17 c0 -3 -4 -8
-10 -11 -5 -3 -10 -1 -10 4 0 6 5 11 10 11 6 0 10 -2 10 -4z"/>
<path d="M798 601 c-8 -11 -27 -21 -43 -23 -43 -5 -44 -28 -1 -28 24 0 39 6
50 21 9 13 27 22 42 23 42 2 43 26 0 26 -23 0 -39 -6 -48 -19z"/>
</g>
</svg>
