<?xml version="1.0" standalone="no"?>
<!DOCTYPE svg PUBLIC "-//W3C//DTD SVG 20010904//EN"
 "http://www.w3.org/TR/2001/REC-SVG-20010904/DTD/svg10.dtd">
<svg version="1.0" xmlns="http://www.w3.org/2000/svg"
 width="444.000000pt" height="342.000000pt" viewBox="0 0 444.000000 342.000000"
 preserveAspectRatio="xMidYMid meet">

<g transform="translate(0.000000,342.000000) scale(0.100000,-0.100000)"
fill="#000000" stroke="none">
<path d="M868 3349 c-540 -574 -669 -1401 -328 -2104 90 -187 234 -389 368
-519 l41 -39 133 104 c73 56 174 135 224 175 l91 72 -102 104 c-227 231 -352
502 -380 828 -8 92 9 277 35 387 19 79 77 243 86 243 3 0 266 -204 585 -453
372 -291 588 -453 601 -452 11 1 279 204 595 451 317 247 579 450 583 452 12
4 67 -145 90 -241 26 -110 43 -295 35 -387 -28 -326 -153 -597 -380 -828
l-102 -104 91 -72 c50 -40 151 -119 224 -175 l133 -104 41 39 c134 130 278
332 368 519 275 567 247 1234 -75 1770 -83 138 -259 360 -305 385 -13 7 -164
-106 -656 -490 -351 -275 -641 -500 -644 -500 -3 0 -282 217 -620 481 -338
264 -628 490 -643 501 l-29 21 -60 -64z"/>
</g>
</svg>
