<?xml version="1.0" standalone="no"?>
<!DOCTYPE svg PUBLIC "-//W3C//DTD SVG 20010904//EN"
 "http://www.w3.org/TR/2001/REC-SVG-20010904/DTD/svg10.dtd">
<svg version="1.0" xmlns="http://www.w3.org/2000/svg"
 width="131.000000pt" height="115.000000pt" viewBox="0 0 131.000000 115.000000"
 preserveAspectRatio="xMidYMid meet">

<g transform="translate(0.000000,115.000000) scale(0.100000,-0.100000)"
fill="#000000" stroke="none">
<path d="M643 1129 c-46 -23 -72 -56 -83 -106 -7 -28 -5 -33 10 -33 12 0 20
10 24 31 7 38 66 99 95 99 12 0 21 6 21 15 0 20 -17 19 -67 -6z"/>
<path d="M730 1135 c0 -8 9 -15 19 -15 11 0 33 -12 50 -26 31 -26 55 -25 44 2
-6 17 -74 54 -98 54 -8 0 -15 -7 -15 -15z"/>
<path d="M197 974 c-4 -4 -7 -40 -7 -81 0 -57 3 -73 15 -73 10 0 15 15 17 58
3 51 4 55 15 32 68 -151 87 -184 90 -159 3 17 -13 62 -44 125 -44 90 -67 117
-86 98z"/>
<path d="M443 968 c-24 -30 -94 -202 -90 -222 2 -15 18 9 55 84 l51 105 1 -57
c0 -45 3 -58 15 -58 23 0 17 153 -6 158 -9 1 -20 -3 -26 -10z"/>
<path d="M945 968 c-22 -12 -45 -37 -45 -50 0 -15 26 -8 43 12 9 11 24 20 32
20 8 0 15 7 15 15 0 18 -17 19 -45 3z"/>
<path d="M1010 965 c0 -8 8 -15 19 -15 10 0 30 -10 45 -21 26 -21 53 -16 38 7
-25 37 -102 59 -102 29z"/>
<path d="M894 874 c3 -9 6 -20 6 -25 0 -11 60 -49 78 -49 20 0 14 28 -8 35
-11 4 -28 17 -36 31 -18 27 -50 34 -40 8z"/>
<path d="M730 815 c0 -8 9 -15 19 -15 11 0 33 -12 50 -26 31 -26 55 -25 44 2
-6 17 -74 54 -98 54 -8 0 -15 -7 -15 -15z"/>
<path d="M1010 810 c0 -12 7 -20 16 -20 8 0 29 -13 46 -30 34 -34 48 -38 48
-12 0 24 -25 47 -73 67 -36 15 -37 14 -37 -5z"/>
<path d="M190 720 c0 -64 3 -80 15 -80 12 0 15 16 15 80 0 64 -3 80 -15 80
-12 0 -15 -16 -15 -80z"/>
<path d="M460 720 c0 -64 3 -80 15 -80 12 0 15 16 15 80 0 64 -3 80 -15 80
-12 0 -15 -16 -15 -80z"/>
<path d="M884 709 c-10 -17 51 -69 81 -69 30 0 33 16 5 25 -11 4 -33 17 -49
31 -21 17 -32 21 -37 13z"/>
<path d="M1067 685 c-15 -14 -35 -25 -43 -25 -8 0 -14 -6 -14 -13 0 -21 55 -9
85 19 48 44 21 62 -28 19z"/>
<path d="M554 633 c3 -10 8 -30 12 -45 7 -30 75 -98 98 -98 8 0 21 -3 30 -6
10 -4 16 -1 16 7 0 8 -18 21 -40 31 -42 17 -80 67 -80 106 0 16 -6 22 -21 22
-15 0 -19 -5 -15 -17z"/>
<path d="M818 555 c-10 -13 -34 -29 -53 -36 -43 -16 -49 -42 -7 -33 52 12 107
64 87 83 -6 6 -16 1 -27 -14z"/>
<path d="M310 289 c0 -16 -4 -19 -20 -14 -26 8 -50 -11 -50 -40 0 -29 20 -46
54 -43 25 2 26 5 26 60 0 32 -2 58 -5 58 -3 0 -5 -9 -5 -21z m-10 -34 c19 -23
8 -50 -20 -50 -19 0 -26 6 -28 24 -5 35 26 53 48 26z"/>
<path d="M563 250 c0 -36 2 -50 4 -32 2 17 2 47 0 65 -2 17 -4 3 -4 -33z"/>
<path d="M640 290 c-25 -25 -26 -62 -1 -84 23 -21 72 -18 79 4 4 13 3 13 -11
2 -25 -21 -60 -11 -71 21 -8 23 -6 31 12 49 18 19 25 20 49 10 26 -11 27 -11
9 3 -26 20 -42 19 -66 -5z"/>
<path d="M1111 254 l-1 -61 38 1 c33 1 37 4 40 29 4 37 -15 60 -44 53 -18 -5
-24 -1 -27 16 -2 13 -5 -4 -6 -38z m57 7 c21 -13 11 -55 -15 -59 -26 -4 -41
31 -23 53 14 17 20 18 38 6z"/>
<path d="M22 243 l1 -58 6 50 6 50 14 -32 c7 -18 17 -33 21 -33 10 0 32 51 25
58 -3 4 -8 -4 -12 -16 -7 -30 -18 -28 -33 8 -19 46 -30 36 -28 -27z"/>
<path d="M107 253 c7 -71 11 -75 12 -10 1 31 -3 57 -8 57 -5 0 -6 -21 -4 -47z"/>
<path d="M157 262 c-20 -22 -22 -43 -5 -60 14 -14 54 -16 62 -3 3 4 -5 6 -17
4 -14 -3 -29 2 -36 11 -12 14 -9 16 23 16 37 0 47 15 24 38 -17 17 -32 15 -51
-6z m37 2 c27 -10 18 -24 -15 -24 -27 0 -30 2 -19 15 14 17 13 17 34 9z"/>
<path d="M387 262 c-20 -22 -22 -43 -5 -60 14 -14 54 -16 63 -3 3 6 -6 9 -21
8 -37 -3 -55 26 -31 50 15 15 20 16 40 4 20 -13 21 -13 8 2 -18 22 -34 21 -54
-1z"/>
<path d="M483 273 c-7 -2 -13 -9 -13 -15 0 -6 6 -6 15 2 15 12 35 6 35 -11 0
-5 -8 -9 -18 -9 -10 0 -23 -5 -29 -11 -17 -17 -4 -39 21 -38 16 1 17 2 4 6
-10 2 -18 11 -18 19 0 20 38 17 43 -3 3 -10 5 -2 6 18 1 25 -4 39 -15 43 -9 3
-16 6 -17 5 -1 0 -8 -3 -14 -6z"/>
<path d="M753 273 c-7 -2 -13 -9 -13 -15 0 -7 5 -6 14 1 21 18 45 3 43 -27 -2
-20 -9 -28 -25 -30 -26 -4 -29 13 -4 27 9 6 13 10 7 11 -20 0 -38 -18 -32 -34
4 -11 17 -16 37 -14 26 2 30 6 30 33 0 45 -22 63 -57 48z"/>
<path d="M848 273 c-14 -3 -18 -14 -16 -46 1 -36 2 -37 5 -10 5 35 29 62 43
47 5 -5 10 -25 13 -44 4 -34 4 -34 5 6 2 30 -3 44 -14 48 -9 3 -16 5 -17 5 -1
-1 -10 -3 -19 -6z"/>
<path d="M948 273 c-14 -3 -18 -14 -16 -46 1 -41 1 -41 5 -7 8 62 52 63 55 1
l1 -36 4 33 c4 30 -10 64 -26 61 -3 -1 -14 -3 -23 -6z"/>
<path d="M1029 263 c-12 -16 -12 -17 2 -5 24 19 48 5 46 -26 -2 -20 -9 -28
-25 -30 -26 -4 -29 13 -4 27 9 6 13 10 7 11 -20 0 -38 -18 -32 -34 4 -11 17
-16 37 -14 26 2 30 6 30 33 0 51 -34 72 -61 38z"/>
<path d="M1251 266 c-12 -15 -2 -27 32 -39 26 -10 9 -30 -20 -24 -16 3 -21 1
-15 -5 14 -14 57 -5 57 12 0 8 -12 21 -28 28 -30 14 -27 37 4 29 11 -3 17 -1
13 4 -8 13 -30 11 -43 -5z"/>
<path d="M343 230 c0 -25 2 -35 4 -22 2 12 2 32 0 45 -2 12 -4 2 -4 -23z"/>
<path d="M1213 230 c0 -25 2 -35 4 -22 2 12 2 32 0 45 -2 12 -4 2 -4 -23z"/>
<path d="M133 100 c0 -36 2 -50 4 -32 2 17 2 47 0 65 -2 17 -4 3 -4 -33z"/>
<path d="M764 146 c-15 -12 -17 -18 -8 -33 6 -10 22 -20 35 -23 38 -9 30 -35
-10 -33 -22 1 -30 -2 -23 -9 5 -5 22 -8 38 -6 36 4 40 37 6 54 -38 19 -44 29
-27 44 12 10 19 10 27 2 7 -7 17 -12 23 -12 10 1 -24 30 -35 30 -3 0 -15 -6
-26 -14z"/>
<path d="M26 134 c-37 -36 -3 -98 50 -92 15 2 29 10 32 18 4 12 2 13 -9 3 -20
-19 -57 -16 -69 6 -14 28 -13 38 10 61 11 11 16 20 11 20 -5 0 -17 -7 -25 -16z"/>
<path d="M85 140 c3 -5 11 -10 16 -10 6 0 7 5 4 10 -3 6 -11 10 -16 10 -6 0
-7 -4 -4 -10z"/>
<path d="M1168 127 c-2 -7 -2 -28 2 -47 3 -25 11 -36 25 -38 18 -2 18 -2 3 8
-22 14 -24 57 -3 62 13 2 12 5 -4 15 -15 9 -20 9 -23 0z"/>
<path d="M173 80 c0 -25 2 -35 4 -22 2 12 2 32 0 45 -2 12 -4 2 -4 -23z"/>
<path d="M201 78 l2 -43 6 35 c4 26 12 36 28 38 18 3 22 -2 26 -35 l4 -38 -1
40 c-1 38 -3 40 -33 43 -33 3 -33 3 -32 -40z"/>
<path d="M303 80 c0 -25 2 -35 4 -22 2 12 2 32 0 45 -2 12 -4 2 -4 -23z"/>
<path d="M330 100 c-15 -28 4 -60 35 -60 13 0 26 4 29 9 3 4 -5 6 -17 4 -32
-6 -55 21 -36 43 7 9 22 14 36 11 12 -2 20 0 17 4 -10 17 -53 9 -64 -11z"/>
<path d="M423 80 c0 -25 2 -35 4 -22 2 12 2 32 0 45 -2 12 -4 2 -4 -23z"/>
<path d="M460 112 c0 -5 11 -7 25 -4 35 6 31 -11 -6 -25 -31 -12 -35 -33 -8
-41 11 -3 11 -2 -1 7 -13 10 -13 12 0 21 30 20 53 7 30 -16 -7 -7 -6 -11 5
-11 12 0 15 9 13 36 -3 31 -7 36 -30 39 -16 2 -28 -1 -28 -6z"/>
<path d="M552 78 l1 -43 4 38 c4 33 7 38 26 35 16 -2 24 -12 29 -38 l6 -35 -1
40 c-2 37 -4 40 -34 43 -33 3 -33 3 -31 -40z"/>
<path d="M647 113 c-13 -12 -7 -23 18 -35 15 -7 24 -17 21 -25 -3 -8 -1 -11 4
-8 19 12 10 35 -16 41 -16 4 -23 12 -20 20 6 15 3 18 -7 7z"/>
<path d="M854 106 c-9 -22 -1 -59 14 -64 11 -3 11 0 1 16 -17 27 -5 54 23 50
29 -4 36 -37 12 -56 -11 -8 -13 -12 -5 -10 25 7 37 36 25 56 -14 22 -62 28
-70 8z"/>
<path d="M954 106 c-11 -30 1 -61 25 -64 13 -2 27 0 32 5 5 5 -3 9 -19 8 -22
0 -27 4 -27 25 0 21 5 25 27 25 14 -1 24 3 22 7 -9 14 -54 9 -60 -6z"/>
<path d="M1043 80 c0 -25 2 -35 4 -22 2 12 2 32 0 45 -2 12 -4 2 -4 -23z"/>
<path d="M1082 108 c-22 -22 -7 -69 23 -68 5 0 2 5 -7 11 -29 16 -21 29 18 29
28 0 35 3 32 18 -4 21 -48 28 -66 10z m53 -8 c4 -6 -7 -10 -25 -10 -18 0 -29
4 -25 10 3 6 15 10 25 10 10 0 22 -4 25 -10z"/>
<path d="M1231 112 c-1 -7 6 -26 14 -42 8 -16 12 -37 8 -47 -14 -40 12 1 29
44 20 54 16 72 -5 22 l-14 -34 -16 35 c-8 19 -16 29 -16 22z"/>
<path d="M640 50 c0 -5 5 -10 11 -10 5 0 7 5 4 10 -3 6 -8 10 -11 10 -2 0 -4
-4 -4 -10z"/>
<path d="M1130 50 c-9 -6 -10 -10 -3 -10 6 0 15 5 18 10 8 12 4 12 -15 0z"/>
</g>
</svg>
