<?xml version="1.0" standalone="no"?>
<!DOCTYPE svg PUBLIC "-//W3C//DTD SVG 20010904//EN"
 "http://www.w3.org/TR/2001/REC-SVG-20010904/DTD/svg10.dtd">
<svg version="1.0" xmlns="http://www.w3.org/2000/svg"
 width="100.000000pt" height="100.000000pt" viewBox="0 0 100.000000 100.000000"
 preserveAspectRatio="xMidYMid meet">

<g transform="translate(0.000000,100.000000) scale(0.100000,-0.100000)"
fill="#000000" stroke="none">
<path d="M380 849 c-19 -6 -42 -17 -51 -25 -8 -8 -28 -14 -43 -14 -44 0 -83
-26 -97 -65 -7 -19 -16 -35 -19 -35 -23 0 -44 -33 -52 -81 -21 -136 -21 -135
0 -182 25 -57 70 -87 130 -87 35 0 49 -6 76 -34 19 -18 48 -36 66 -40 35 -7
105 8 115 25 9 14 45 1 75 -26 14 -13 48 -33 75 -45 53 -23 105 -65 105 -87 0
-7 5 -13 10 -13 6 0 10 9 10 20 0 33 -51 79 -114 103 -69 26 -82 44 -35 49 18
2 34 8 36 13 4 14 -167 12 -194 -3 -37 -20 -88 -15 -122 14 -25 21 -31 33 -31
65 0 35 4 42 35 60 20 12 40 29 45 39 8 15 16 17 50 9 24 -5 56 -5 81 0 37 9
41 7 50 -16 5 -13 9 -29 9 -34 0 -5 5 -9 10 -9 13 0 13 36 0 60 -8 15 -5 22
12 35 21 14 24 14 34 0 11 -14 34 -21 34 -9 0 3 -5 14 -10 25 -9 16 -7 19 15
19 34 0 31 12 -8 30 -23 11 -33 23 -35 43 -2 15 -9 27 -18 27 -17 0 -18 -18
-4 -56 9 -23 7 -31 -11 -50 -12 -13 -38 -29 -57 -35 -34 -11 -111 -8 -144 6
-12 5 -18 3 -18 -7 0 -22 -33 -48 -62 -48 -28 0 -44 14 -50 45 -5 28 -23 19
-21 -11 2 -26 -15 -31 -48 -14 -15 8 -19 7 -19 -4 0 -21 16 -28 59 -28 51 1
66 -10 52 -36 -6 -11 -11 -31 -11 -43 0 -20 -4 -21 -47 -16 -38 4 -54 12 -80
41 -30 32 -33 42 -33 96 0 47 3 60 15 60 18 0 18 2 4 34 -10 21 -9 30 5 52 17
25 41 29 81 13 24 -9 15 17 -9 29 -25 13 -26 15 -13 35 8 12 26 28 41 35 24
12 29 12 40 -4 13 -17 14 -16 25 4 17 32 63 52 121 52 43 0 50 -3 50 -20 0
-26 14 -25 32 1 29 45 98 18 98 -38 0 -13 5 -23 10 -23 6 0 10 9 10 20 0 40
66 14 119 -45 31 -35 40 -65 21 -65 -5 0 -10 -6 -10 -14 0 -9 8 -12 25 -8 55
10 86 -58 44 -97 -22 -20 -12 -36 15 -25 16 6 21 -12 16 -61 -6 -64 -104 -93
-154 -46 -28 26 -41 25 -30 -3 9 -23 56 -46 94 -46 45 0 34 -20 -25 -50 -45
-22 -47 -25 -26 -30 30 -7 61 -47 70 -90 3 -19 12 -35 19 -38 20 -6 14 42 -12
91 l-25 45 21 19 c11 10 38 45 60 78 34 52 38 65 33 100 -3 22 -7 61 -9 87 -3
49 -16 74 -45 83 -9 3 -27 25 -39 50 -24 49 -85 100 -135 111 -17 3 -43 16
-58 27 -20 14 -35 18 -56 13 -39 -9 -42 -9 -93 -3 -25 3 -61 1 -80 -4z"/>
<path d="M394 715 c9 -33 -16 -75 -44 -75 -20 0 -26 -11 -14 -23 9 -8 57 11
70 29 9 11 18 12 38 4 21 -8 26 -16 26 -45 0 -19 4 -35 9 -35 14 0 23 35 15
64 -4 16 -2 26 5 26 9 0 41 50 41 65 0 3 -7 5 -15 5 -8 0 -15 -7 -15 -15 0 -8
-12 -22 -26 -32 -31 -20 -55 -9 -64 27 -3 13 -12 26 -19 28 -11 4 -12 -2 -7
-23z"/>
<path d="M500 455 c0 -8 -11 -22 -25 -31 -21 -14 -30 -15 -52 -5 -30 14 -41 8
-23 -14 15 -18 62 -20 92 -4 17 9 24 8 33 -5 13 -18 35 -22 35 -6 0 6 -9 19
-20 30 -11 11 -17 26 -14 35 4 10 0 15 -10 15 -9 0 -16 -7 -16 -15z"/>
</g>
</svg>
