<?xml version="1.0" standalone="no"?>
<!DOCTYPE svg PUBLIC "-//W3C//DTD SVG 20010904//EN"
 "http://www.w3.org/TR/2001/REC-SVG-20010904/DTD/svg10.dtd">
<svg version="1.0" xmlns="http://www.w3.org/2000/svg"
 width="100.000000pt" height="100.000000pt" viewBox="0 0 100.000000 100.000000"
 preserveAspectRatio="xMidYMid meet">

<g transform="translate(0.000000,100.000000) scale(0.100000,-0.100000)"
fill="#000000" stroke="none">
<path d="M160 830 c0 -6 27 -10 61 -10 37 0 58 4 54 10 -3 6 -31 10 -61 10
-30 0 -54 -4 -54 -10z"/>
<path d="M740 830 c0 -6 27 -10 60 -10 33 0 60 4 60 10 0 6 -27 10 -60 10 -33
0 -60 -4 -60 -10z"/>
<path d="M456 804 c-21 -20 -20 -63 0 -85 16 -17 15 -19 -8 -28 -13 -5 -29
-15 -36 -23 -13 -16 -35 -118 -27 -126 9 -10 17 6 29 60 9 42 17 56 39 66 15
7 27 17 27 23 0 5 11 9 23 9 49 0 76 70 41 104 -8 9 -28 16 -44 16 -16 0 -36
-7 -44 -16z m74 -19 c26 -32 -13 -81 -47 -59 -35 22 -23 74 17 74 10 0 23 -7
30 -15z"/>
<path d="M160 780 c0 -5 13 -10 29 -10 17 0 33 5 36 10 4 6 -8 10 -29 10 -20
0 -36 -4 -36 -10z"/>
<path d="M740 780 c0 -5 16 -10 35 -10 19 0 35 5 35 10 0 6 -16 10 -35 10 -19
0 -35 -4 -35 -10z"/>
<path d="M180 717 c0 -25 84 -115 93 -100 4 6 -12 27 -33 48 -22 22 -40 47
-40 57 0 10 -4 18 -10 18 -5 0 -10 -10 -10 -23z"/>
<path d="M750 725 c0 -8 -14 -30 -31 -50 -41 -47 -29 -58 16 -15 33 32 48 80
25 80 -5 0 -10 -7 -10 -15z"/>
<path d="M525 690 c-4 -6 5 -14 19 -20 30 -11 41 -31 51 -87 4 -24 11 -43 17
-43 15 0 0 91 -20 119 -20 27 -58 45 -67 31z"/>
<path d="M438 614 c-5 -4 -8 -25 -8 -48 0 -28 3 -37 11 -29 6 6 9 27 7 48 -2
20 -6 33 -10 29z"/>
<path d="M556 612 c-8 -14 5 -82 15 -76 12 7 11 71 0 79 -5 3 -12 1 -15 -3z"/>
<path d="M310 598 c-90 -26 -74 -70 33 -93 27 -5 28 -8 22 -44 -7 -41 9 -65
42 -59 16 3 19 -10 29 -119 10 -114 16 -144 29 -131 3 2 -2 74 -10 159 -8 85
-15 160 -15 167 0 8 19 12 61 12 l62 0 -7 -97 c-4 -54 -9 -131 -13 -170 -4
-48 -2 -73 5 -73 5 0 13 33 16 73 16 183 17 185 35 180 27 -7 44 22 38 62 -5
33 -4 35 31 41 76 14 111 46 79 72 -17 15 -106 36 -115 28 -8 -9 18 -26 40
-26 9 0 29 -5 45 -11 l28 -11 -29 -15 c-61 -32 -361 -32 -422 0 l-29 15 28 11
c16 6 34 11 42 11 23 0 45 12 39 21 -6 11 -18 10 -64 -3z m110 -112 c0 -26
-20 -67 -29 -62 -8 5 -7 27 5 64 5 17 24 15 24 -2z m190 2 c0 -7 3 -24 7 -37
4 -17 2 -22 -7 -19 -15 5 -32 53 -22 62 10 10 22 6 22 -6z"/>
<path d="M221 436 c-41 -42 -52 -59 -49 -80 4 -37 22 -37 26 0 2 21 17 45 48
75 42 41 53 59 36 59 -4 0 -32 -24 -61 -54z"/>
<path d="M495 409 c-10 -26 -1 -249 10 -249 14 0 19 240 6 253 -7 7 -12 5 -16
-4z"/>
<path d="M155 280 c3 -5 31 -10 61 -10 30 0 54 5 54 10 0 6 -27 10 -61 10 -37
0 -58 -4 -54 -10z"/>
<path d="M155 240 c-4 -6 8 -10 29 -10 20 0 36 5 36 10 0 6 -13 10 -29 10 -17
0 -33 -4 -36 -10z"/>
</g>
</svg>
